<?xml version="1.0" encoding="UTF-8" standalone="no"?>
<!-- Created with Inkscape (http://www.inkscape.org/) -->

<svg
   width="326.03049mm"
   height="281.92072mm"
   viewBox="0 0 326.03049 281.92071"
   version="1.1"
   id="svg1"
   xml:space="preserve"
   inkscape:version="1.4.3 (0d15f75, 2025-12-25)"
   sodipodi:docname="drawing-1.svg"
   xmlns:inkscape="http://www.inkscape.org/namespaces/inkscape"
   xmlns:sodipodi="http://sodipodi.sourceforge.net/DTD/sodipodi-0.dtd"
   xmlns="http://www.w3.org/2000/svg"
   xmlns:svg="http://www.w3.org/2000/svg"><sodipodi:namedview
     id="namedview1"
     pagecolor="#ffffff"
     bordercolor="#000000"
     borderopacity="0.25"
     inkscape:showpageshadow="2"
     inkscape:pageopacity="0.0"
     inkscape:pagecheckerboard="0"
     inkscape:deskcolor="#d1d1d1"
     inkscape:document-units="mm"
     inkscape:zoom="0.15049101"
     inkscape:cx="-5046.813"
     inkscape:cy="-3169.6245"
     inkscape:window-width="1470"
     inkscape:window-height="895"
     inkscape:window-x="0"
     inkscape:window-y="33"
     inkscape:window-maximized="0"
     inkscape:current-layer="layer1"><inkscape:page
       x="0.00015421564"
       y="-2.6831784e-05"
       width="326.03049"
       height="281.92072"
       id="page1"
       margin="0"
       bleed="0" /></sodipodi:namedview><defs
     id="defs1" /><g
     inkscape:label="Layer 1"
     inkscape:groupmode="layer"
     id="layer1"
     transform="translate(3182.9825,671.30088)"><g
       id="g36"
       inkscape:export-filename="fav.svg"
       inkscape:export-xdpi="96"
       inkscape:export-ydpi="96"><rect
         style="opacity:1;fill:#101b2d;fill-opacity:1;stroke:#101b2d;stroke-width:0.640825;stroke-linecap:round;stroke-linejoin:round;stroke-miterlimit:48.6;stroke-dasharray:none;stroke-opacity:1;paint-order:fill markers stroke"
         id="rect36"
         width="325.38971"
         height="281.27988"
         x="-3182.6621"
         y="-670.98047"
         rx="2.1702416"
         ry="3.7617519" /><g
         id="g30"
         transform="translate(-533.70856,-430.4452)"><path
           style="fill:#f27768"
           d="m -2603.6323,-35.707759 c -7.7502,-1.231362 -13.9845,-3.911952 -18.0256,-7.750535 -5.1496,-4.891605 -5.3425,-10.659282 -0.5269,-15.756235 5.6128,-5.940842 19.1316,-9.802688 30.8721,-8.819025 10.6771,0.894575 19.1938,4.178581 23.7417,9.154614 7.0676,7.733115 2.1586,16.903245 -11.4944,21.471835 -4.8436,1.620747 -7.3039,1.969343 -14.7773,2.093713 -5.5961,0.09313 -7.1035,0.0324 -9.7896,-0.394367 z m 219.8688,0.332047 c -4.3429,-0.398702 -11.1174,-2.247139 -14.5195,-3.961694 -4.27,-2.151888 -7.5394,-5.065435 -8.9493,-7.97504 -0.7681,-1.585135 -0.8575,-2.013798 -0.8648,-4.149025 -0.01,-2.12535 0.08,-2.567898 0.8149,-4.118082 5.524,-11.657375 31.3119,-16.426429 48.5762,-8.983375 4.3643,1.88155 7.4624,4.102199 9.5267,6.828641 1.3663,1.804525 2.3251,4.391213 2.3251,6.272816 0,0.624187 -0.2426,1.92043 -0.5392,2.880541 -1.9016,6.156838 -10.6333,11.311554 -21.9843,12.978394 -2.6029,0.382214 -11.2143,0.517992 -14.3858,0.226824 z"
           id="path33"
           sodipodi:nodetypes="sssssssssssccssssss" /><path
           style="fill:#2e96ab"
           d="m -2491.449,-35.461595 c -11.4587,-1.297766 -21.6544,-6.888306 -28.0527,-15.381878 -3.0206,-4.009838 -5.3011,-8.556838 -5.9753,-11.914074 -0.6717,-3.344614 1.5756,-6.29878 4.7916,-6.29878 2.4599,0 4.1453,1.520942 5.0583,4.564877 2.8097,9.366885 11.1508,16.271547 22.6746,18.769697 3.4107,0.739391 9.455,0.796738 12.8473,0.121894 3.3665,-0.669711 6.3026,-1.64546 8.9879,-2.986959 7.4365,-3.715054 12.1342,-8.826006 14.0723,-15.310134 0.832,-2.783714 1.6315,-3.969885 3.1362,-4.653196 2.0964,-0.952034 4.1575,-0.524663 5.6461,1.170728 1.7386,1.980171 1.7206,4.150915 -0.071,8.594251 -4.6737,11.59082 -15.9498,20.365521 -29.3218,22.817411 -3.391,0.621766 -10.4768,0.881788 -13.7934,0.506163 z m -104.0119,-47.330076 c -1.2866,-0.584249 -2.3019,-1.834069 -2.7661,-3.405036 -0.4022,-1.36108 -0.2948,-2.164625 1.7399,-13.022118 0.7772,-4.147335 1.6115,-8.632505 1.854,-9.967035 l 0.4408,-2.42642 -6.5721,-6.42786 c -9.0308,-8.83266 -10.6391,-10.51545 -11.2184,-11.73805 -1.2937,-2.73065 0.1414,-6.16682 3.0351,-7.26701 0.5843,-0.22216 7.9486,-1.29324 22.0782,-3.21112 l 2.2106,-0.30006 5.3951,-10.88278 c 3.2685,-6.59316 5.7182,-11.21692 6.2151,-11.73049 1.6132,-1.66758 4.3855,-1.85676 6.4055,-0.43708 1.0132,0.71214 1.5432,1.65695 6.6621,11.87715 l 5.5613,11.10347 7.5406,1.07746 c 4.1474,0.5926 9.4207,1.33716 11.7186,1.65459 4.4881,0.61999 5.7109,0.99391 6.9018,2.11063 0.9292,0.8713 1.7394,2.55377 1.7453,3.62399 0.013,2.31431 -0.086,2.43625 -9.4677,11.66763 l -8.8995,8.75723 0.4521,2.75215 c 0.2487,1.51368 1.1125,6.50261 1.9194,11.086522 0.807,4.583906 1.538,8.942317 1.6245,9.685358 0.3863,3.320748 -1.942,5.925057 -5.2971,5.925057 -1.6259,0 -0.6271,0.477094 -14.754,-7.04738 l -8.6327,-4.598072 -5.7871,3.069852 c -3.1829,1.688419 -7.3349,3.910484 -9.2267,4.937922 -7.1521,3.884372 -8.4182,4.248829 -10.8786,3.1315 z m 166.7182,0.08114 c -1.8321,-0.999543 -3.0254,-2.795428 -3.0369,-4.570531 -0.01,-0.808618 2.4414,-15.030408 3.7151,-21.595048 l 0.5134,-2.64583 -8.7939,-8.7689 c -5.4112,-5.39585 -8.9329,-9.10969 -9.1553,-9.65488 -0.2236,-0.54783 -0.3216,-1.51429 -0.2567,-2.5322 0.086,-1.35311 0.249,-1.82442 0.9148,-2.64706 1.4485,-1.78961 2.4576,-2.11099 9.7577,-3.10773 3.6335,-0.49611 8.9647,-1.22724 11.8471,-1.62473 l 5.2407,-0.72273 5.3555,-10.87088 c 4.7504,-9.64276 5.4859,-10.98254 6.5101,-11.85917 1.8097,-1.5489 4.1105,-1.67978 6.1225,-0.34828 0.9632,0.63737 1.4925,1.5917 6.5858,11.8723 l 5.5385,11.17921 3.1187,0.4461 c 1.7153,0.24535 7.0478,0.99061 11.85,1.65614 9.9658,1.38115 10.571,1.56633 11.9724,3.66323 0.706,1.05649 0.8599,1.54317 0.8599,2.72048 0,0.78859 -0.1813,1.87646 -0.4029,2.41749 -0.2778,0.67822 -3.1155,3.65396 -9.1381,9.58265 l -8.7353,8.59896 1.2085,6.48229 c 2.0194,10.832087 3.0449,16.706492 3.0434,17.432913 -0.01,3.008568 -2.3301,5.32149 -5.3458,5.321041 -1.5468,-2.31e-4 -2.9588,-0.582236 -7.328,-3.020456 -1.3961,-0.779042 -5.5995,-3.028519 -9.341,-4.998836 l -6.8028,-3.582396 -1.3993,0.740212 c -0.7697,0.407117 -5.6261,2.983589 -10.7921,5.725493 -9.0994,4.829633 -9.4464,4.987762 -11.1125,5.06474 -1.2164,0.0562 -1.9521,-0.0473 -2.5135,-0.353592 z"
           id="path32"
           sodipodi:nodetypes="ssssssssssssssssssscsssscsssscssssscssssscsssscscsssssscsssscsssssscscssscssss" /></g></g></g></svg>
